<svg width="500" height="149" viewBox="0 0 500 149" fill="none" xmlns="http://www.w3.org/2000/svg">
<path d="M30.2399 33H14V49.2399H30.2399V33ZM46.4797 33V49.2399H62.7196V65.4797H78.9595V33H46.4797ZM14 97.9708H30.2399V81.731H62.7196V65.4911H14V97.9708Z" fill="#743CFF"/>
<path d="M78.9712 33V65.4797L95.2111 81.7196V49.2399L78.9712 33ZM30.2402 97.9708L46.4801 114.211V97.9708L30.2402 81.731V97.9708ZM62.72 81.731L78.9598 97.9708V81.731L62.72 65.4911V81.731ZM30.2402 49.2399L46.4801 65.4797V49.2399L30.2402 33V49.2399Z" fill="#06E68E"/>
<path d="M142.407 72.4005C149.456 65.1801 152.985 58.4471 152.985 52.1675C152.985 46.3073 151.033 41.6373 147.118 38.1461C143.27 34.7116 138.594 33 133.078 33C128.697 33 124.724 34.0768 121.172 36.2418C117.619 38.4068 114.895 41.5239 113 45.6045L121.615 50.66C124.1 45.5139 127.948 42.9408 133.157 42.9408C136.006 42.9408 138.31 43.8023 140.092 45.5139C141.863 47.2254 142.759 49.5718 142.759 52.5189C142.759 56.3615 140.126 60.9181 134.848 66.1776L113.17 88.2695V96.2494H154.12V86.3992H128.368L142.407 72.4005ZM201.313 59.4446H191.007V75.5856H171.554L192.96 34.1562H181.848L160.442 75.5856V85.0844H190.996V96.2607H201.302V85.0844H208.407V75.5856H201.302V59.4446H201.313ZM236.759 55.0126H235.601L249.811 34.1675H238.177L218.451 63.7066C215.966 67.3111 214.717 71.4824 214.717 76.2204C214.717 82.432 216.76 87.5441 220.846 91.568C224.932 95.4672 230.232 97.4169 236.747 97.4169C243.205 97.4169 248.472 95.4672 252.558 91.568C256.643 87.5441 258.686 82.432 258.686 76.2204C258.686 69.9521 256.643 64.8627 252.558 60.9635C248.551 56.9962 243.273 55.0126 236.759 55.0126ZM245.203 84.597C243.012 86.694 240.198 87.7481 236.759 87.7481C233.206 87.7481 230.346 86.694 228.189 84.597C226.022 82.5 224.943 79.7003 224.943 76.2091C224.943 72.7179 226.022 69.9295 228.189 67.8212C230.346 65.7242 233.206 64.67 236.759 64.67C240.198 64.67 243.012 65.7242 245.203 67.8212C247.393 69.9181 248.494 72.7179 248.494 76.2091C248.494 79.7116 247.393 82.5 245.203 84.597ZM290.16 50.7506C283.406 50.7506 278.231 53.267 274.61 58.2884V51.8955H265.02V114H274.61V89.9585C278.276 94.9232 283.463 97.4055 290.16 97.4055C296.266 97.4055 301.475 95.1612 305.8 90.6612C310.124 86.1726 312.28 80.6411 312.28 74.0668C312.28 67.5605 310.124 62.063 305.8 57.563C301.419 53.029 296.209 50.7506 290.16 50.7506ZM298.695 84.2909C296.027 86.9547 292.679 88.2809 288.661 88.2809C284.632 88.2809 281.284 86.9547 278.617 84.2909C275.95 81.5139 274.622 78.1133 274.622 74.0894C274.622 70.0088 275.961 66.631 278.617 63.9786C281.284 61.2582 284.632 59.898 288.661 59.898C292.691 59.898 296.027 61.2582 298.695 63.9786C301.362 66.6423 302.69 70.0088 302.69 74.0894C302.69 78.17 301.35 81.5705 298.695 84.2909ZM324.731 33.0113C323.017 33.0113 321.565 33.6348 320.373 34.8703C319.192 36.0491 318.591 37.4773 318.591 39.1322C318.591 40.7872 319.181 42.238 320.373 43.4849C321.621 44.6637 323.063 45.2645 324.731 45.2645C326.4 45.2645 327.807 44.6751 328.999 43.4849C330.247 42.2494 330.86 40.7985 330.86 39.1322C330.86 37.4773 330.27 36.0605 329.078 34.8703C327.898 33.6348 326.445 33.0113 324.731 33.0113ZM319.93 96.272H329.521V51.9181H319.93V96.272ZM380.788 51.9068H369.597L359.382 65.9282L349.167 51.9068H338.067L353.877 73.466L337.171 96.272H348.361L359.473 81.1058L370.482 96.272H381.582L364.966 73.5567L380.788 51.9068ZM405.043 50.7506C398.108 50.7506 392.49 52.995 388.165 57.495C383.784 61.995 381.594 67.5151 381.594 74.0894C381.594 80.8337 383.818 86.4219 388.256 90.8539C392.762 95.2292 398.584 97.4169 405.758 97.4169C414.406 97.4169 420.887 94.1977 425.211 87.7481L417.3 83.1348C414.69 86.8073 410.876 88.6322 405.837 88.6322C402.103 88.6322 398.982 87.7141 396.462 85.8778C393.942 84.0416 392.331 81.4685 391.627 78.1587H426.982C427.22 76.6851 427.334 75.3476 427.334 74.1688C427.334 67.6625 425.234 62.131 421.023 57.5743C416.824 53.029 411.501 50.7506 405.043 50.7506ZM391.536 70.3602C392.183 66.9824 393.693 64.33 396.065 62.369C398.437 60.4194 401.399 59.4446 404.952 59.4446C408.209 59.4446 410.978 60.3967 413.26 62.2783C415.541 64.1713 417.005 66.8577 417.664 70.3489H391.536V70.3602ZM433.655 96.272H443.246V33.0113H433.655V96.272ZM483.72 77.864C482.8 76.1751 481.484 74.8149 479.77 73.7834C478.056 72.7519 476.422 71.9698 474.889 71.437C473.346 70.9043 471.541 70.4055 469.464 69.9295C466.74 69.1587 464.663 68.3426 463.244 67.4924C461.826 66.631 461.111 65.5315 461.111 64.1713C461.111 62.6977 461.724 61.5416 462.927 60.7141C464.141 59.8867 465.696 59.4786 467.591 59.4786C471.677 59.4786 474.458 61.1675 475.945 64.534L484.026 60.0113C482.482 57.1096 480.281 54.8539 477.409 53.2217C474.538 51.6008 471.269 50.7846 467.591 50.7846C462.972 50.7846 459.09 52.0315 455.958 54.5139C452.882 56.9962 451.338 60.2834 451.338 64.364C451.282 66.5516 451.702 68.4786 452.621 70.1335C453.54 71.7884 454.868 73.1259 456.616 74.1234C458.364 75.1322 459.964 75.8917 461.417 76.4244C462.87 76.9572 464.663 77.4899 466.786 78.0227C472.415 79.3829 475.219 81.2758 475.219 83.7015C475.219 87.0113 472.699 88.6662 467.671 88.6662C462.575 88.6662 459.295 86.5353 457.808 82.2733L449.545 87.068C450.964 90.3212 453.245 92.8602 456.389 94.6965C459.522 96.5327 463.29 97.4509 467.671 97.4509C472.585 97.4509 476.705 96.238 480.02 93.8123C483.334 91.3867 484.991 88.0428 484.991 83.7922C485.07 81.5139 484.639 79.5416 483.72 77.864Z" fill="#1C1C1C"/>
</svg>
