<svg width="676" height="823" viewBox="0 0 676 823" fill="none" xmlns="http://www.w3.org/2000/svg">
<circle cx="338" cy="338" r="338" fill="white"/>
<rect x="261" y="216" width="66" height="66" fill="#0F1D2B"/>
<rect x="439" y="394" width="66" height="66" fill="#0F1D2B"/>
<rect x="172" y="305" width="66" height="66" fill="#0F1D2B"/>
<rect x="83" y="394" width="66" height="66" fill="#0F1D2B"/>
<rect x="350" y="305" width="66" height="66" fill="#0F1D2B"/>
<rect x="261" y="394" width="66" height="66" fill="#0F1D2B"/>
<rect x="350" y="216" width="66" height="66" fill="#0F1D2B"/>
<rect x="528" y="394" width="66" height="66" fill="#0F1D2B"/>
<rect x="261" y="305" width="66" height="66" fill="#0F1D2B"/>
<rect x="172" y="394" width="66" height="66" fill="#0F1D2B"/>
<rect x="439" y="305" width="66" height="66" fill="#0F1D2B"/>
<rect x="350" y="394" width="66" height="66" fill="#0F1D2B"/>
<path d="M242.232 780.624C243.336 780.624 244.256 781.023 244.992 781.82C245.789 782.556 246.127 783.476 246.004 784.58L245.452 792.308C245.391 793.841 244.808 795.16 243.704 796.264C242.6 797.307 241.281 797.828 239.748 797.828H201.476C199.943 797.828 198.624 797.307 197.52 796.264C196.477 795.16 196.017 793.841 196.14 792.308C196.692 787.708 198.041 783.783 200.188 780.532C202.335 777.281 205.187 774.429 208.744 771.976C212.363 769.461 216.533 767.161 221.256 765.076C225.059 763.359 228.156 761.825 230.548 760.476C233.001 759.065 234.749 757.409 235.792 755.508C236.896 753.607 237.295 751.061 236.988 747.872C236.497 744.499 235.056 741.769 232.664 739.684C230.272 737.599 226.715 736.556 221.992 736.556C218.312 736.556 215.184 737.231 212.608 738.58C210.032 739.929 208.161 741.923 206.996 744.56C206.935 744.621 206.904 744.744 206.904 744.928C206.904 745.235 207.088 745.48 207.456 745.664C208.437 746.155 209.143 746.86 209.572 747.78C210.063 748.639 210.308 749.528 210.308 750.448C210.308 751.859 209.817 753.177 208.836 754.404C207.855 755.569 206.444 756.152 204.604 756.152C202.641 756.152 201.169 755.477 200.188 754.128C199.207 752.717 198.716 751.031 198.716 749.068C198.716 746.676 199.329 744.253 200.556 741.8C202.703 737.813 205.708 734.869 209.572 732.968C213.436 731.005 217.453 730.024 221.624 730.024C224.997 730.024 228.217 730.637 231.284 731.864C234.412 733.091 237.08 734.931 239.288 737.384C241.557 739.837 243.06 742.935 243.796 746.676C243.98 747.841 244.072 748.976 244.072 750.08C244.072 753.208 243.397 755.907 242.048 758.176C240.76 760.384 239.012 762.316 236.804 763.972C234.657 765.567 232.235 767.039 229.536 768.388C226.837 769.676 224.108 770.995 221.348 772.344C218.588 773.632 215.981 775.073 213.528 776.668C211.075 778.201 208.959 780.041 207.18 782.188C205.463 784.335 204.297 786.941 203.684 790.008V790.192C203.684 790.683 203.929 790.928 204.42 790.928H238.092C238.583 790.928 238.828 790.713 238.828 790.284C238.828 789.18 238.767 788.137 238.644 787.156C238.521 786.175 238.46 785.224 238.46 784.304C238.46 783.261 238.828 782.403 239.564 781.728C240.3 780.992 241.189 780.624 242.232 780.624ZM275.946 799.116C274.904 799.177 273.984 798.84 273.186 798.104C272.45 797.429 272.082 796.571 272.082 795.528C272.082 794.485 272.45 793.596 273.186 792.86C273.984 792.124 274.904 791.817 275.946 791.94C276.989 792.063 278.124 792.185 279.35 792.308C280.577 792.369 281.773 792.431 282.938 792.492C283.49 792.492 283.766 792.216 283.766 791.664V779.52C283.766 778.968 283.49 778.692 282.938 778.692H256.534C255.001 778.692 253.928 777.956 253.314 776.484C253.13 775.932 253.038 775.38 253.038 774.828C253.038 774.399 253.1 773.969 253.222 773.54C253.345 773.111 253.529 772.712 253.774 772.344L280.546 733.06C281.037 732.263 281.681 731.68 282.478 731.312C283.337 730.883 284.196 730.668 285.054 730.668C286.588 730.668 287.845 731.22 288.826 732.324C289.869 733.367 290.39 734.593 290.39 736.004V771.516C290.39 772.068 290.666 772.344 291.218 772.344H300.97C301.89 772.344 302.657 772.651 303.27 773.264C303.884 773.877 304.19 774.613 304.19 775.472C304.19 776.392 303.884 777.159 303.27 777.772C302.657 778.385 301.89 778.692 300.97 778.692H291.218C290.666 778.692 290.39 778.968 290.39 779.52V791.664C290.39 792.216 290.666 792.492 291.218 792.492C292.445 792.431 293.641 792.369 294.806 792.308C296.033 792.185 297.168 792.063 298.21 791.94C299.253 791.817 300.142 792.124 300.878 792.86C301.676 793.596 302.074 794.485 302.074 795.528C302.074 796.571 301.676 797.429 300.878 798.104C300.142 798.84 299.253 799.177 298.21 799.116C296.248 798.932 294.346 798.779 292.506 798.656C290.666 798.533 288.857 798.472 287.078 798.472C285.3 798.472 283.49 798.533 281.65 798.656C279.81 798.779 277.909 798.932 275.946 799.116ZM283.766 741.708C283.766 741.34 283.644 741.095 283.398 740.972C283.214 740.849 283 740.972 282.754 741.34L262.33 771.332C262.208 771.577 262.146 771.731 262.146 771.792C262.146 772.16 262.392 772.344 262.882 772.344H282.938C283.49 772.344 283.766 772.068 283.766 771.516V741.708ZM336.004 756.612C340.849 756.367 344.958 757.225 348.332 759.188C351.766 761.089 354.373 763.696 356.152 767.008C357.992 770.32 358.912 774 358.912 778.048C358.912 781.728 357.9 785.132 355.876 788.26C353.913 791.327 351.214 793.811 347.78 795.712C344.406 797.613 340.573 798.564 336.28 798.564C333.397 798.564 330.484 798.104 327.54 797.184C324.596 796.325 321.897 794.761 319.444 792.492C316.99 790.223 315.028 787.095 313.556 783.108C312.084 779.06 311.348 773.939 311.348 767.744C311.348 760.568 312.268 754.128 314.108 748.424C315.948 742.659 318.8 738.12 322.664 734.808C326.528 731.496 331.496 729.84 337.568 729.84C341.493 729.84 344.774 730.484 347.412 731.772C350.11 733.06 352.165 734.655 353.576 736.556C354.986 738.396 355.692 740.267 355.692 742.168C355.692 743.885 355.109 745.357 353.944 746.584C352.84 747.749 351.46 748.271 349.804 748.148C348.332 747.964 347.197 747.381 346.4 746.4C345.602 745.357 345.204 744.253 345.204 743.088C345.204 742.107 345.51 741.156 346.124 740.236C346.43 739.745 346.4 739.347 346.032 739.04C345.173 738.12 344.038 737.476 342.628 737.108C341.217 736.74 339.592 736.556 337.752 736.556C334.256 736.556 330.974 737.629 327.908 739.776C324.841 741.861 322.388 745.051 320.548 749.344C318.708 753.576 317.849 758.912 317.972 765.352C317.972 765.659 318.094 765.812 318.34 765.812C318.83 765.812 319.29 765.536 319.72 764.984C322.112 762.101 324.841 760.016 327.908 758.728C330.974 757.379 333.673 756.673 336.004 756.612ZM336.28 791.94C339.714 791.94 342.597 791.235 344.928 789.824C347.258 788.413 349.006 786.665 350.172 784.58C351.398 782.433 352.012 780.256 352.012 778.048C352.012 774.981 351.521 772.467 350.54 770.504C349.62 768.48 348.393 766.916 346.86 765.812C345.388 764.708 343.762 763.941 341.984 763.512C340.266 763.021 338.58 762.776 336.924 762.776C333.98 762.776 331.189 763.512 328.552 764.984C325.914 766.456 323.768 768.48 322.112 771.056C320.456 773.571 319.628 776.392 319.628 779.52C319.628 780.072 319.658 780.471 319.72 780.716C320.885 784.151 322.725 786.88 325.24 788.904C327.754 790.928 331.434 791.94 336.28 791.94ZM396.36 749.988C400.163 749.988 403.444 750.724 406.204 752.196C409.025 753.607 411.356 755.508 413.196 757.9C415.036 760.292 416.416 762.929 417.336 765.812C418.256 768.633 418.716 771.455 418.716 774.276C418.716 777.159 418.195 780.041 417.152 782.924C416.171 785.807 414.668 788.444 412.644 790.836C410.681 793.167 408.259 795.037 405.376 796.448C402.493 797.859 399.181 798.564 395.44 798.564C393.109 798.564 390.901 798.135 388.816 797.276C386.731 796.417 384.829 795.252 383.112 793.78C382.989 793.657 382.805 793.596 382.56 793.596C382.253 793.596 382.1 793.811 382.1 794.24V813.744C382.1 814.235 382.315 814.48 382.744 814.48C383.419 814.48 384.063 814.419 384.676 814.296C385.351 814.235 385.995 814.204 386.608 814.204C387.467 814.204 388.203 814.511 388.816 815.124C389.429 815.737 389.736 816.504 389.736 817.424C389.736 818.344 389.399 819.111 388.724 819.724C388.049 820.337 387.221 820.613 386.24 820.552C384.339 820.368 382.836 820.245 381.732 820.184C380.628 820.123 379.616 820.092 378.696 820.092C377.531 820.092 376.427 820.123 375.384 820.184C374.341 820.307 372.9 820.429 371.06 820.552C370.079 820.613 369.251 820.337 368.576 819.724C367.901 819.111 367.564 818.344 367.564 817.424C367.564 816.504 367.871 815.737 368.484 815.124C369.097 814.511 369.833 814.204 370.692 814.204C371.244 814.204 371.827 814.235 372.44 814.296C373.115 814.357 373.759 814.419 374.372 814.48H374.556C374.985 814.48 375.2 814.235 375.2 813.744V757.44C375.2 756.949 374.985 756.704 374.556 756.704C373.759 756.704 372.992 756.765 372.256 756.888C371.581 756.949 370.876 756.98 370.14 756.98C369.22 756.98 368.423 756.643 367.748 755.968C367.135 755.232 366.828 754.404 366.828 753.484C366.828 752.441 367.196 751.552 367.932 750.816C368.729 750.08 369.619 749.773 370.6 749.896C371.827 750.019 373.145 750.141 374.556 750.264C375.967 750.387 377.316 750.448 378.604 750.448C379.585 750.448 380.413 750.785 381.088 751.46C381.763 752.135 382.1 752.963 382.1 753.944V755.692C382.1 756.06 382.192 756.305 382.376 756.428C382.56 756.489 382.775 756.397 383.02 756.152C384.799 754.373 386.792 752.901 389 751.736C391.208 750.571 393.661 749.988 396.36 749.988ZM395.624 792.032C398.691 792.032 401.389 791.235 403.72 789.64C406.112 788.045 407.983 785.899 409.332 783.2C410.743 780.44 411.448 777.435 411.448 774.184C411.448 770.872 410.804 767.897 409.516 765.26C408.228 762.623 406.388 760.537 403.996 759.004C401.665 757.471 398.905 756.704 395.716 756.704C393.079 756.704 390.595 757.348 388.264 758.636C385.995 759.863 384.063 761.58 382.468 763.788C382.223 764.095 382.1 764.432 382.1 764.8V784.856C382.1 785.163 382.192 785.469 382.376 785.776C383.787 787.616 385.596 789.119 387.804 790.284C390.012 791.449 392.619 792.032 395.624 792.032ZM477.803 792.216C478.662 792.216 479.398 792.523 480.011 793.136C480.624 793.749 480.931 794.485 480.931 795.344C480.931 796.325 480.594 797.123 479.919 797.736C479.244 798.349 478.447 798.625 477.527 798.564C475.994 798.441 474.614 798.349 473.387 798.288C472.222 798.227 471.056 798.196 469.891 798.196C468.787 798.196 467.622 798.227 466.395 798.288C465.23 798.349 463.85 798.441 462.255 798.564C461.335 798.625 460.538 798.349 459.863 797.736C459.188 797.123 458.851 796.325 458.851 795.344C458.851 794.424 459.188 793.657 459.863 793.044C460.538 792.369 461.335 792.093 462.255 792.216C462.378 792.216 462.531 792.247 462.715 792.308C462.899 792.308 463.083 792.308 463.267 792.308C463.635 792.308 463.85 792.216 463.911 792.032C464.034 791.787 463.972 791.541 463.727 791.296L453.883 779.336C453.515 778.845 453.147 778.845 452.779 779.336L443.211 791.296C443.088 791.419 443.027 791.603 443.027 791.848C443.027 792.155 443.18 792.308 443.487 792.308C443.794 792.308 444.07 792.308 444.315 792.308C444.56 792.247 444.867 792.216 445.235 792.216C446.094 792.216 446.83 792.523 447.443 793.136C448.056 793.749 448.363 794.485 448.363 795.344C448.363 796.325 448.026 797.123 447.351 797.736C446.676 798.349 445.879 798.625 444.959 798.564C443.364 798.441 441.954 798.349 440.727 798.288C439.562 798.227 438.427 798.196 437.323 798.196C436.219 798.196 435.054 798.227 433.827 798.288C432.662 798.349 431.282 798.441 429.687 798.564C428.767 798.625 427.97 798.349 427.295 797.736C426.62 797.123 426.283 796.325 426.283 795.344C426.283 794.485 426.59 793.749 427.203 793.136C427.816 792.523 428.552 792.216 429.411 792.216C430.086 792.216 430.76 792.247 431.435 792.308C432.11 792.369 432.815 792.461 433.551 792.584C433.919 792.584 434.256 792.431 434.563 792.124L449.283 774.736C449.59 774.368 449.59 774 449.283 773.632L434.655 756.428C434.348 756.121 434.011 755.968 433.643 755.968C432.907 756.029 432.171 756.121 431.435 756.244C430.699 756.305 430.024 756.336 429.411 756.336C428.552 756.336 427.816 756.029 427.203 755.416C426.59 754.803 426.283 754.067 426.283 753.208C426.283 752.227 426.62 751.429 427.295 750.816C427.97 750.141 428.767 749.865 429.687 749.988C431.282 750.111 432.662 750.203 433.827 750.264C435.054 750.325 436.219 750.356 437.323 750.356C438.427 750.356 439.562 750.325 440.727 750.264C441.954 750.203 443.364 750.111 444.959 749.988C445.879 749.865 446.676 750.141 447.351 750.816C448.026 751.429 448.363 752.227 448.363 753.208C448.363 754.128 448.026 754.895 447.351 755.508C446.676 756.121 445.879 756.397 444.959 756.336C444.836 756.336 444.683 756.336 444.499 756.336C444.376 756.275 444.223 756.244 444.039 756.244C443.671 756.244 443.426 756.336 443.303 756.52C443.242 756.704 443.334 756.949 443.579 757.256L453.239 769.032C453.607 769.461 453.975 769.461 454.343 769.032L463.819 757.256C464.003 756.949 464.095 756.735 464.095 756.612C464.095 756.367 463.88 756.244 463.451 756.244C463.206 756.244 462.96 756.275 462.715 756.336C462.47 756.336 462.224 756.336 461.979 756.336C461.12 756.336 460.384 756.029 459.771 755.416C459.158 754.803 458.851 754.067 458.851 753.208C458.851 752.227 459.188 751.429 459.863 750.816C460.538 750.141 461.335 749.865 462.255 749.988C463.85 750.111 465.23 750.203 466.395 750.264C467.622 750.325 468.787 750.356 469.891 750.356C471.056 750.356 472.222 750.325 473.387 750.264C474.614 750.203 475.994 750.111 477.527 749.988C478.447 749.865 479.244 750.141 479.919 750.816C480.594 751.429 480.931 752.227 480.931 753.208C480.931 754.067 480.624 754.803 480.011 755.416C479.398 756.029 478.662 756.336 477.803 756.336C477.19 756.336 476.515 756.305 475.779 756.244C475.043 756.121 474.307 756.029 473.571 755.968C473.203 755.968 472.866 756.121 472.559 756.428L458.023 773.632C457.778 774 457.778 774.368 458.023 774.736L472.651 792.124C472.896 792.369 473.172 792.492 473.479 792.492C474.215 792.492 474.951 792.461 475.687 792.4C476.423 792.277 477.128 792.216 477.803 792.216Z" fill="white"/>
</svg>
